<svg width="128" height="128" viewBox="0 0 128 128" fill="none" xmlns="http://www.w3.org/2000/svg" role="img" aria-labelledby="title">
  <title id="title">charnlee.wiki</title>
  <defs>
    <linearGradient id="markMain" x1="22" y1="18" x2="108" y2="110" gradientUnits="userSpaceOnUse">
      <stop offset="0" stop-color="#1BA8FF"/>
      <stop offset="0.55" stop-color="#006DFF"/>
      <stop offset="1" stop-color="#052B75"/>
    </linearGradient>
    <linearGradient id="markSide" x1="22" y1="70" x2="62" y2="112" gradientUnits="userSpaceOnUse">
      <stop offset="0" stop-color="#073B8D"/>
      <stop offset="1" stop-color="#021B4D"/>
    </linearGradient>
    <filter id="softShadow" x="5" y="8" width="118" height="116" filterUnits="userSpaceOnUse" color-interpolation-filters="sRGB">
      <feDropShadow dx="0" dy="5" stdDeviation="5" flood-color="#0F3B82" flood-opacity="0.18"/>
    </filter>
  </defs>
  <g filter="url(#softShadow)">
    <path d="M63.8 14.5 102.7 37c3.3 1.9 5.3 5.4 5.3 9.2v12.1c0 3.1-3.4 5-6 3.4L66.4 40.8a5.4 5.4 0 0 0-5.4 0L26.3 60.7V48.5c0-3.9 2.1-7.5 5.5-9.4l26.5-24.2a5.4 5.4 0 0 1 5.5-.4Z" fill="url(#markMain)"/>
    <path d="M26.3 47.6v34.6c0 3.8 2 7.4 5.3 9.3l21.1 12.3c2.7 1.6 6.1-.4 6.1-3.5V86.8L38.5 75.2V54.6L26.3 47.6Z" fill="url(#markSide)"/>
    <path d="M102.1 77.1 81.9 88.8v13.6c0 3.1 3.4 5 6.1 3.5l20.3-11.9c3.3-1.9 5.4-5.5 5.4-9.3v-3.1c0-3.1-3.4-5-6.1-3.4l-5.5 3.2v-4.3Z" fill="#042763"/>
    <path d="M54 57.2h31.1a3.9 3.9 0 0 1 0 7.8H54a3.9 3.9 0 0 1 0-7.8Zm0 15.9h31.1a3.9 3.9 0 0 1 0 7.8H54a3.9 3.9 0 0 1 0-7.8Zm0 15.8h22.1a3.9 3.9 0 0 1 0 7.8H54a3.9 3.9 0 0 1 0-7.8Z" fill="#1598FF"/>
    <path d="M58.7 86.8c3.8 1.1 7.6 1.1 11.4 0v25.1c0 2.5-3 3.8-4.8 2.1l-3.3-3.1-3.1 3c-1.8 1.7-4.8.4-4.8-2.1V85.4l4.6 1.4Z" fill="#006DFF"/>
  </g>
</svg>
