<svg width="360" height="96" viewBox="0 0 360 96" fill="none" xmlns="http://www.w3.org/2000/svg" role="img" aria-labelledby="title">
  <title id="title">charnlee.wiki</title>
  <defs>
    <linearGradient id="fullMain" x1="10" y1="9" x2="85" y2="89" gradientUnits="userSpaceOnUse">
      <stop offset="0" stop-color="#1BA8FF"/>
      <stop offset="0.55" stop-color="#006DFF"/>
      <stop offset="1" stop-color="#052B75"/>
    </linearGradient>
    <linearGradient id="textGrad" x1="110" y1="25" x2="336" y2="77" gradientUnits="userSpaceOnUse">
      <stop offset="0" stop-color="#0F172A"/>
      <stop offset="1" stop-color="#2563EB"/>
    </linearGradient>
  </defs>
  <path d="M47.9 8.3 76.9 25c2.5 1.4 4 4.1 4 6.9v9c0 2.3-2.5 3.8-4.5 2.5L50 28a4 4 0 0 0-4 0L20.1 42.9v-9.1c0-2.9 1.6-5.6 4.1-7L43.8 8.7a4 4 0 0 1 4.1-.4Z" fill="url(#fullMain)"/>
  <path d="M20.1 33.1v25.8c0 2.9 1.5 5.5 4 6.9l15.7 9.2c2 1.2 4.5-.3 4.5-2.6v-10L29.2 53.7V38.3l-9.1-5.2Z" fill="#052B75"/>
  <path d="M76.5 55.1 61.4 63.8V74c0 2.3 2.5 3.8 4.5 2.6l15.1-8.8c2.5-1.4 4-4.1 4-6.9v-2.3c0-2.3-2.5-3.8-4.5-2.5l-4 2.3v-3.3Z" fill="#042763"/>
  <path d="M40.8 40.4H64a2.9 2.9 0 1 1 0 5.8H40.8a2.9 2.9 0 1 1 0-5.8Zm0 11.8H64a2.9 2.9 0 1 1 0 5.8H40.8a2.9 2.9 0 1 1 0-5.8Zm0 11.8h16.5a2.9 2.9 0 1 1 0 5.8H40.8a2.9 2.9 0 1 1 0-5.8Z" fill="#1598FF"/>
  <path d="M44.3 62.4c2.8.8 5.7.8 8.5 0v18.7c0 1.9-2.2 2.8-3.6 1.6l-2.4-2.3-2.4 2.2c-1.3 1.3-3.5.3-3.5-1.6V61.4l3.4 1Z" fill="#006DFF"/>
  <text x="108" y="59" fill="url(#textGrad)" font-family="-apple-system, BlinkMacSystemFont, 'Segoe UI', sans-serif" font-size="42" font-weight="760" letter-spacing="0">charnlee.wiki</text>
</svg>
