<svg xmlns="http://www.w3.org/2000/svg"
     viewBox="0 0 512 512"
     role="img"
     aria-labelledby="title desc">
  <title id="title">Charnlee's Wiki favicon</title>
  <desc id="desc">A blue geometric knowledge and bookmark icon.</desc>

  <defs>
    <linearGradient id="brightBlue" x1="0" y1="0" x2="1" y2="1">
      <stop offset="0%" stop-color="#2493FF"/>
      <stop offset="100%" stop-color="#075FE8"/>
    </linearGradient>
    <linearGradient id="deepBlue" x1="0" y1="0" x2="1" y2="1">
      <stop offset="0%" stop-color="#061F4A"/>
      <stop offset="100%" stop-color="#0B4FA8"/>
    </linearGradient>
    <linearGradient id="midBlue" x1="0" y1="0" x2="1" y2="1">
      <stop offset="0%" stop-color="#0A66E8"/>
      <stop offset="100%" stop-color="#092F73"/>
    </linearGradient>
  </defs>

  <path fill="url(#brightBlue)"
        d="M96 170 256 68l160 102-50 32-110-70-110 70z"/>

  <path fill="url(#deepBlue)"
        d="M96 170 146 202v148l62 38v66L96 388z"/>

  <path fill="url(#midBlue)"
        d="M366 350 416 388 304 454v-66z"/>

  <rect x="186" y="220" width="140" height="18" rx="9" fill="url(#brightBlue)"/>
  <rect x="186" y="266" width="140" height="18" rx="9" fill="url(#brightBlue)"/>
  <rect x="186" y="312" width="140" height="18" rx="9" fill="url(#brightBlue)"/>

  <path fill="url(#brightBlue)"
        d="M228 370h56v98l-28-22-28 22z"/>
</svg>
